<?xml version="1.0" encoding="UTF-8"?>
<!-- Created with Inkscape (http://www.inkscape.org/) -->
<svg width="512" height="512" version="1.1" viewBox="0 0 512 512" xmlns="http://www.w3.org/2000/svg">
 <path d="m246.88 150.5 26 7-70.75 227.75q-2 6.25-3 11.25t-1 10.25v11.25q0 6.25-3.25 9.75-3 3.25-8.25 3.25h-57q-5.25 0-8.5-3.25-3.25-3.5-3.25-9.75v-11q0-3.75-1-7.25-0.75-3.75-2.5-9.75l-78.75-264.75q-2.25-7.5-5.25-10.75-2.75-3.5-8.25-5.75l-10.75-3.25q-4.5-2-6.5-5-2-3.25-2-7.5 0-5.5 3.5-8.75t10.75-3.25h112q7.5 0 11 3.25t3.5 8.75q0 8.5-9 11.75l-15.75 2.75q-6 1.75-7.25 7-1.25 5 1.75 15.25l76 259.75-22.5 18.5zm159.25-57.25q0-5.75 3.5-9 3.75-3.25 11-3.25h74q7.5 0 11 3.25t3.5 9q0 4.25-2.25 7t-7.75 5l-9 3.25q-7.75 3.25-13 10-5.25 6.5-9 20.5l-70 246.25q-2 6.75-3 11.75-1 4.75-1 9.75v11q0 6.5-3.25 10-3 3.25-8 3.25h-58.25q-5 0-8.25-3.25-3.25-3.5-3.25-10v-10.75q0-3.75-0.75-7.25-0.75-3.75-2.75-10.25l-75.75-264.25q-2.5-8.75-5-12.25-2.25-3.75-6.75-5.5l-10.25-3q-4.5-2-6.75-4.5-2-2.75-2-7 0-5.5 3.5-8.75 3.75-3.25 10.75-3.25h109q7.25 0 10.75 3.25t3.5 8.75q0 4.5-2.5 7.5-2.25 2.75-7.25 4.75l-15.5 3q-5.5 1.5-6.75 6.25-1.25 4.5 2 15.25l73.25 260-20.5 17.75 77.25-271.25q3.25-11.75 0.5-18.5-2.5-6.75-13.75-10.25l-12.5-3q-4.5-1.5-6.75-4.25-2-3-2-7z" fill="#19cccc" aria-label="W"/>
</svg>
